<svg height="1024" stroke-linecap="round" stroke-linejoin="round" viewBox="3843.16693739 5405.52052817 1024 1024" width="1024" xmlns="http://www.w3.org/2000/svg"><path d="m517.1 0q10.08.43 20.14.92 74.32 3.6 142.26 27.23c81.02 28.17 153.73 76.32 211.46 139.88q67.33 74.12 102.12 168.78 26.34 71.68 30.02 149.95.47 10.03.9 20.06v10.17q-.44 9.61-.88 19.22-3.47 74.81-27.21 143.14c-28.18 81.09-76.29 153.77-140.06 211.74q-55.16 50.13-123.29 82.95-5.24 2.53-11.08 5.01a.62.61-26.5 0 1 -.76-.25l-.2-.35a1.36 1.36 0 0 1 .55-1.88q9.98-5.22 17.98-9.47 10.99-5.84 17.33-9.91 6.51-4.19 14.51-8.87c8.27-4.84 16.87-11.69 24.17-18.01q24.21-20.92 38.45-50.29c6.01-12.39 9.47-27.65 10.77-41.27 1.05-11 1.15-25.27-.48-37.83q-1.31-10-1.27-10.66a1.48 1.47 28.6 0 0 -.27-.91q-.38-.54-.35-.69a1.06.97 28.5 0 1 1.69-.42q21.34 18.91 48.65 19.5 5.23.12 9.64-1.05 5.34-1.41 4.29-6.91-.65-3.39-2.75-5-6.32-4.87-7.97-6.03c-4.36-3.06-7.36-6.66-10.74-11.19q-10.06-13.47-16.29-27.74-9.44-21.62-15.11-46.88-6.43-28.62-7.56-48.2c-.22-3.91-.92-11.91-1.06-16.41q-.77-24.15.46-44.33c.39-6.34.34-12.59.76-18.02q.22-2.85 2.61-29.43c1.06-11.84 1.23-20.21 1.7-34.3q1.26-36.95-2.13-70.97-3.05-30.69-8.1-52.33-3.64-15.62-6.71-26.73-16.77-60.64-51.53-112.22-14.22-21.09-31.77-38.47c-26.69-26.44-62.91-45.31-100.7-48.34q-8.71-.7-15.52-.46-19.56.7-38.17 5.85c-29.57 8.18-54.06 26.35-69.43 52.84q-6.88 11.86-11.55 24.35a1.45 1.44 11 0 1 -1.4.94q-18.23-.51-33.63.83a.59.58 7.3 0 1 -.61-.78q6.39-17.98 4-36.73c-4.82-37.92-33.78-63.38-69.71-71.89q-9.73-2.31-20.7-2.27-13.55.05-20.81 1.51-17.23 3.46-28.21 7.95-18.55 7.58-36.65 20.11-12.66 8.76-23.16 22.56c-2.59 3.41-4.45 8.18.69 10.46q1.49.66 2.95.07c12.28-5 26.25-10.36 39.37-12.73 29.12-5.24 61.35-1.2 86.5 15.2 16.45 10.72 26.93 27.73 30.12 46.98a.75.75 0 0 1 -.63.87q-7.34 1.04-28.04 4.12-7.98 1.18-31.66 6.87-17.08 4.1-39.66 14.09-25.02 11.07-56.98 31.22-33.03 20.83-58.6 49.39-18.93 21.15-34.36 42.88c-20.51 28.9-36.82 57.91-50.74 89.03q-10.18 22.75-15.64 43.81-5.87 22.7-7.86 43.28-1.76 18.35-1.27 29.58.59 13.5 2.19 22.3 3.35 18.45 13.23 35.24c1.97 3.34 5.95 5.97 8.64 2.08 1.22-1.76 1.53-6.54 1.6-8.95q.97-30.55 6.52-58.47.32-1.64.85-2.84a.51.51 0 0 1 .98.18q.14 2.65 1.07 10.83c3.44 30.08 16.58 58.72 35.75 81.87a3.22 3.21 31.8 0 1 .66 2.78q-3.23 14.22-4.57 21.42-3.32 17.77-5.18 38.44-2.01 22.45 1.13 46.74 1.29 9.91 4.63 21.36 4.41 15.09 12.78 26.91c2.43 3.43 7.59 8.51 11.32 2.89q.77-1.17.25-3.9-.63-3.29-1.62-10.66c-1.17-8.76-.97-16.04-.8-24.97a.56.54 13.4 0 1 .8-.47q.39.18.55.65c9.48 29.08 31.09 55.43 59.51 67.46q6.36 2.69 10.26 3.31 4.63.74 7.28-3.4a2.81 2.79-43.4 0 0 .09-2.88c-5.47-9.79-10.19-20.41-12.9-31.24q-3.06-12.2-5.37-21.12c-1.74-6.68-2.65-12.8-3.3-19.69a.4.39-82.6 0 1 .53-.41q1.52.55 2.76 1.86 7.55 8.04 18.21 15.29c10.73 7.3 22.94 13.45 34.99 18.07q10.36 3.97 16.29 6.16a.8.79-44.3 0 1 -.02 1.5q-10.3 3.55-19.35 10.36c-7.83 5.88-12.46 13.26-13.55 22.85q-.29 2.52-.68 11.99c-.08 1.88-.7 4.77-2.22 5.84-10.8 7.63-19.41 16.62-24.92 28.34q-2.65 5.63-2.87 9.88-.24 4.51 2.4 9.9 1.16 2.37.03 3.58-6.7 7.17-12.74 14.58a.59.58 34.2 0 1 -.74.14q-29.5-16.25-57.58-37.51-85.54-64.78-137.59-156.01-30.06-52.68-46.83-110.16-16.65-57.06-19.51-118.79-.45-9.66-.89-19.33v-10.16q.43-9.99.89-19.98 3.67-78.81 30.3-150.9 34.87-94.4 101.96-168.19c57.92-63.7 131-112.03 212.37-140.11q67.65-23.34 141.47-26.88 9.93-.47 19.88-.9z" transform="translate(3843.1669 5405.5205)" xmlns="http://www.w3.org/2000/svg"/></svg>